HIERARCHY
ROOT Hips
{
  OFFSET -261.949 89.4685 1567.09
  CHANNELS 6 Xposition Yposition Zposition Zrotation Xrotation Yrotation
  JOINT Spine
  {
    OFFSET 0 8 0
    CHANNELS 6 Xposition Yposition Zposition Zrotation Xrotation Yrotation
    JOINT Spine1
    {
      OFFSET 0 8 0
      CHANNELS 6 Xposition Yposition Zposition Zrotation Xrotation Yrotation
      JOINT Spine2
      {
        OFFSET 0 8 0
        CHANNELS 6 Xposition Yposition Zposition Zrotation Xrotation Yrotation
        JOINT Spine3
        {
          OFFSET 0 8 0
          CHANNELS 6 Xposition Yposition Zposition Zrotation Xrotation Yrotation
          JOINT Neck
          {
            OFFSET 0 17 0
            CHANNELS 6 Xposition Yposition Zposition Zrotation Xrotation Yrotation
            JOINT Head
            {
              OFFSET 0 10.8 0
              CHANNELS 6 Xposition Yposition Zposition Zrotation Xrotation Yrotation
              End Site
              {
                OFFSET 0 20.25 0
              }
            }
          }
          JOINT LeftShoulder
          {
            OFFSET 5 17 0
            CHANNELS 6 Xposition Yposition Zposition Zrotation Xrotation Yrotation
            JOINT LeftShoulder2
            {
              OFFSET 6.45 0 0
              CHANNELS 6 Xposition Yposition Zposition Zrotation Xrotation Yrotation
              JOINT LeftArm
              {
                OFFSET 6.45 0 0
                CHANNELS 6 Xposition Yposition Zposition Zrotation Xrotation Yrotation
                JOINT LeftForeArm
                {
                  OFFSET 0 -32.4 -2
                  CHANNELS 6 Xposition Yposition Zposition Zrotation Xrotation Yrotation
                  JOINT LeftHand
                  {
                    OFFSET 0 -25.65 2
                    CHANNELS 6 Xposition Yposition Zposition Zrotation Xrotation Yrotation
                    JOINT LeftHandThumb1
                    {
                      OFFSET -0.5 -1.5 2.65
                      CHANNELS 6 Xposition Yposition Zposition Zrotation Xrotation Yrotation
                      JOINT LeftHandThumb2
                      {
                        OFFSET 0 -3.8 3.7
                        CHANNELS 6 Xposition Yposition Zposition Zrotation Xrotation Yrotation
                        JOINT LeftHandThumb3
                        {
                          OFFSET 0 -3 2.7
                          CHANNELS 6 Xposition Yposition Zposition Zrotation Xrotation Yrotation
                          End Site
                          {
                            OFFSET 0 -2.3 1.8
                          }
                        }
                      }
                    }
                    JOINT LeftHandIndex
                    {
                      OFFSET 0 -1.9 1.6
                      CHANNELS 6 Xposition Yposition Zposition Zrotation Xrotation Yrotation
                      JOINT LeftHandIndex1
                      {
                        OFFSET 0 -8.3 1.9
                        CHANNELS 6 Xposition Yposition Zposition Zrotation Xrotation Yrotation
                        JOINT LeftHandIndex2
                        {
                          OFFSET 0 -4.5 0
                          CHANNELS 6 Xposition Yposition Zposition Zrotation Xrotation Yrotation
                          JOINT LeftHandIndex3
                          {
                            OFFSET 0 -3.4 0
                            CHANNELS 6 Xposition Yposition Zposition Zrotation Xrotation Yrotation
                            End Site
                            {
                              OFFSET 0 -2.6 0
                            }
                          }
                        }
                      }
                    }
                    JOINT LeftHandMiddle
                    {
                      OFFSET -0.25 -2.2 0.4
                      CHANNELS 6 Xposition Yposition Zposition Zrotation Xrotation Yrotation
                      JOINT LeftHandMiddle1
                      {
                        OFFSET 0 -8.3 1
                        CHANNELS 6 Xposition Yposition Zposition Zrotation Xrotation Yrotation
                        JOINT LeftHandMiddle2
                        {
                          OFFSET 0 -4.65 0
                          CHANNELS 6 Xposition Yposition Zposition Zrotation Xrotation Yrotation
                          JOINT LeftHandMiddle3
                          {
                            OFFSET 0 -3.3 0
                            CHANNELS 6 Xposition Yposition Zposition Zrotation Xrotation Yrotation
                            End Site
                            {
                              OFFSET 0 -2.7 0
                            }
                          }
                        }
                      }
                    }
                    JOINT LeftHandRing
                    {
                      OFFSET -0.5 -2.15 -0.8
                      CHANNELS 6 Xposition Yposition Zposition Zrotation Xrotation Yrotation
                      JOINT LeftHandRing1
                      {
                        OFFSET 0 -7.75 -0.2
                        CHANNELS 6 Xposition Yposition Zposition Zrotation Xrotation Yrotation
                        JOINT LeftHandRing2
                        {
                          OFFSET 0 -3.8 0
                          CHANNELS 6 Xposition Yposition Zposition Zrotation Xrotation Yrotation
                          JOINT LeftHandRing3
                          {
                            OFFSET 0 -3.4 0
                            CHANNELS 6 Xposition Yposition Zposition Zrotation Xrotation Yrotation
                            End Site
                            {
                              OFFSET 0 -2.6 0
                            }
                          }
                        }
                      }
                    }
                    JOINT LeftHandPinky
                    {
                      OFFSET -0.75 -1.75 -1.85
                      CHANNELS 6 Xposition Yposition Zposition Zrotation Xrotation Yrotation
                      JOINT LeftHandPinky1
                      {
                        OFFSET 0 -7.15 -1
                        CHANNELS 6 Xposition Yposition Zposition Zrotation Xrotation Yrotation
                        JOINT LeftHandPinky2
                        {
                          OFFSET 0 -3 0
                          CHANNELS 6 Xposition Yposition Zposition Zrotation Xrotation Yrotation
                          JOINT LeftHandPinky3
                          {
                            OFFSET 0 -2.35 0
                            CHANNELS 6 Xposition Yposition Zposition Zrotation Xrotation Yrotation
                            End Site
                            {
                              OFFSET 0 -2.1 0
                            }
                          }
                        }
                      }
                    }
                  }
                }
              }
            }
          }
          JOINT RightShoulder
          {
            OFFSET -5 17 0
            CHANNELS 6 Xposition Yposition Zposition Zrotation Xrotation Yrotation
            JOINT RightShoulder2
            {
              OFFSET -6.45 0 0
              CHANNELS 6 Xposition Yposition Zposition Zrotation Xrotation Yrotation
              JOINT RightArm
              {
                OFFSET -6.45 0 0
                CHANNELS 6 Xposition Yposition Zposition Zrotation Xrotation Yrotation
                JOINT RightForeArm
                {
                  OFFSET 0 -32.4 -2
                  CHANNELS 6 Xposition Yposition Zposition Zrotation Xrotation Yrotation
                  JOINT RightHand
                  {
                    OFFSET 0 -25.65 2
                    CHANNELS 6 Xposition Yposition Zposition Zrotation Xrotation Yrotation
                    JOINT RightHandThumb1
                    {
                      OFFSET 0.5 -1.5 2.65
                      CHANNELS 6 Xposition Yposition Zposition Zrotation Xrotation Yrotation
                      JOINT RightHandThumb2
                      {
                        OFFSET 0 -3.8 3.7
                        CHANNELS 6 Xposition Yposition Zposition Zrotation Xrotation Yrotation
                        JOINT RightHandThumb3
                        {
                          OFFSET 0 -3 2.7
                          CHANNELS 6 Xposition Yposition Zposition Zrotation Xrotation Yrotation
                          End Site
                          {
                            OFFSET 0 -2.3 1.8
                          }
                        }
                      }
                    }
                    JOINT RightHandIndex
                    {
                      OFFSET 0 -1.9 1.6
                      CHANNELS 6 Xposition Yposition Zposition Zrotation Xrotation Yrotation
                      JOINT RightHandIndex1
                      {
                        OFFSET 0 -8.3 1.9
                        CHANNELS 6 Xposition Yposition Zposition Zrotation Xrotation Yrotation
                        JOINT RightHandIndex2
                        {
                          OFFSET 0 -4.5 0
                          CHANNELS 6 Xposition Yposition Zposition Zrotation Xrotation Yrotation
                          JOINT RightHandIndex3
                          {
                            OFFSET 0 -3.4 0
                            CHANNELS 6 Xposition Yposition Zposition Zrotation Xrotation Yrotation
                            End Site
                            {
                              OFFSET 0 -2.6 0
                            }
                          }
                        }
                      }
                    }
                    JOINT RightHandMiddle
                    {
                      OFFSET 0.25 -2.2 0.4
                      CHANNELS 6 Xposition Yposition Zposition Zrotation Xrotation Yrotation
                      JOINT RightHandMiddle1
                      {
                        OFFSET 0 -8.3 1
                        CHANNELS 6 Xposition Yposition Zposition Zrotation Xrotation Yrotation
                        JOINT RightHandMiddle2
                        {
                          OFFSET 0 -4.65 0
                          CHANNELS 6 Xposition Yposition Zposition Zrotation Xrotation Yrotation
                          JOINT RightHandMiddle3
                          {
                            OFFSET 0 -3.3 0
                            CHANNELS 6 Xposition Yposition Zposition Zrotation Xrotation Yrotation
                            End Site
                            {
                              OFFSET 0 -2.7 0
                            }
                          }
                        }
                      }
                    }
                    JOINT RightHandRing
                    {
                      OFFSET 0.5 -2.15 -0.8
                      CHANNELS 6 Xposition Yposition Zposition Zrotation Xrotation Yrotation
                      JOINT RightHandRing1
                      {
                        OFFSET 0 -7.75 -0.2
                        CHANNELS 6 Xposition Yposition Zposition Zrotation Xrotation Yrotation
                        JOINT RightHandRing2
                        {
                          OFFSET 0 -3.8 0
                          CHANNELS 6 Xposition Yposition Zposition Zrotation Xrotation Yrotation
                          JOINT RightHandRing3
                          {
                            OFFSET 0 -3.4 0
                            CHANNELS 6 Xposition Yposition Zposition Zrotation Xrotation Yrotation
                            End Site
                            {
                              OFFSET 0 -2.6 0
                            }
                          }
                        }
                      }
                    }
                    JOINT RightHandPinky
                    {
                      OFFSET 0.75 -1.75 -1.85
                      CHANNELS 6 Xposition Yposition Zposition Zrotation Xrotation Yrotation
                      JOINT RightHandPinky1
                      {
                        OFFSET 0 -7.15 -1
                        CHANNELS 6 Xposition Yposition Zposition Zrotation Xrotation Yrotation
                        JOINT RightHandPinky2
                        {
                          OFFSET 0 -3 0
                          CHANNELS 6 Xposition Yposition Zposition Zrotation Xrotation Yrotation
                          JOINT RightHandPinky3
                          {
                            OFFSET 0 -2.35 0
                            CHANNELS 6 Xposition Yposition Zposition Zrotation Xrotation Yrotation
                            End Site
                            {
                              OFFSET 0 -2.1 0
                            }
                          }
                        }
                      }
                    }
                  }
                }
              }
            }
          }
        }
      }
    }
  }
  JOINT LeftUpLeg
  {
    OFFSET 8 0 0
    CHANNELS 6 Xposition Yposition Zposition Zrotation Xrotation Yrotation
    JOINT LeftLeg
    {
      OFFSET 0 -45 -1
      CHANNELS 6 Xposition Yposition Zposition Zrotation Xrotation Yrotation
      JOINT LeftFoot
      {
        OFFSET 0 -41 -2
        CHANNELS 6 Xposition Yposition Zposition Zrotation Xrotation Yrotation
        JOINT LeftToeBase
        {
          OFFSET 0 -7.5 12.5
          CHANNELS 6 Xposition Yposition Zposition Zrotation Xrotation Yrotation
          JOINT LeftFootToe
          {
            OFFSET 0 0 4
            CHANNELS 6 Xposition Yposition Zposition Zrotation Xrotation Yrotation
            End Site
            {
              OFFSET 0 0 0
            }
          }
        }
      }
    }
  }
  JOINT RightUpLeg
  {
    OFFSET -8 0 0
    CHANNELS 6 Xposition Yposition Zposition Zrotation Xrotation Yrotation
    JOINT RightLeg
    {
      OFFSET 0 -45 -1
      CHANNELS 6 Xposition Yposition Zposition Zrotation Xrotation Yrotation
      JOINT RightFoot
      {
        OFFSET 0 -41 -2
        CHANNELS 6 Xposition Yposition Zposition Zrotation Xrotation Yrotation
        JOINT RightToeBase
        {
          OFFSET 0 -7.5 12.5
          CHANNELS 6 Xposition Yposition Zposition Zrotation Xrotation Yrotation
          JOINT RightFootToe
          {
            OFFSET 0 0 4
            CHANNELS 6 Xposition Yposition Zposition Zrotation Xrotation Yrotation
            End Site
            {
              OFFSET 0 0 0
            }
          }
        }
      }
    }
  }
}
MOTION
Frames:	3
Frame Time:	0.0111111
-261.352 72.4884 1591.11 -1.55528 7.79491 -176.135 5.68434e-14 8 0 4.34952 11.2006 -12.6779 -5.68434e-14 8 4.54747e-13 0.338329 8.53657 -0.747958 -1.13687e-13 8 2.27374e-13 0.155399 4.2725 -0.364382 -1.13687e-13 8 0 0.154621 4.26052 -0.363343 5.68434e-14 17 0 -2.03311 10.1173 -1.03366 -8.52651e-14 10.8 -2.27374e-13 -4.63962 23.798 -1.90917 5 17 0 -5.75271 -4.85171 8.08077 6.45 0 2.27374e-13 -0.762933 -1.69073 1.17194 6.45 0 2.27374e-13 69.7358 15.0004 5.42496 -5.68434e-14 -32.4 -2 -102.428 -62.6989 -107.764 3.41061e-13 -25.65 2 10.6351 -13.786 -23.3433 -0.5 -1.5 2.65 -30.8206 -54.9172 113.325 2.84217e-14 -3.8 3.7 -0.0382336 44.6253 0.000856598 2.84217e-14 -3 2.7 -0.00876816 64.7492 0.00834302 0 -1.9 1.6 -0 0 3.18055e-15 1.13687e-13 -8.3 1.9 -55.2768 13.4691 8.34814 0 -4.5 0 -74.3659 0.00391993 -0.00226663 0 -3.4 0 -57.3126 -0.00116146 -0.000397544 -0.25 -2.2 0.4 -0 0 3.18055e-15 0 -8.3 1 -55.4241 11.4558 8.33162 -2.27374e-13 -4.65 5.68434e-14 -76.0653 -0.000819068 -0.00076664 -3.41061e-13 -3.3 0 -90.0002 9.28324e-14 -7.41467e-14 -0.5 -2.15 -0.8 -0 0 3.18055e-15 1.13687e-13 -7.75 -0.2 -79.8996 -1.91284 10.5887 0 -3.8 0 -20.1687 -0.00251141 0.00244177 0 -3.4 -5.68434e-14 -90.0002 -5.85023e-13 5.69419e-13 -0.75 -1.75 -1.85 -0 0 3.18055e-15 1.13687e-13 -7.15 -1 -61.0067 10.6756 11.0549 0 -3 0 -77.2837 0.00807312 0.000358138 0 -2.35 2.27374e-13 -90.0002 1.56642e-13 -1.23246e-13 -5 17 -2.27374e-13 7.10393 -1.49144 -1.38868 -6.45 5.68434e-14 2.27374e-13 -1.87153 0.0238662 -1.53512 -6.45 -5.68434e-14 2.27374e-13 -54.5255 -27.6116 8.83711 -1.13687e-13 -32.4 -2 101.471 -69.8559 87.6067 -2.27374e-13 -25.65 2 -42.0832 14.3013 9.8141 0.5 -1.5 2.65 4.38272 1.74659 -6.08093 -1.42109e-14 -3.8 3.7 0.254788 7.94975 -0.117733 0 -3 2.7 0.0191707 11.491 -0.0266921 2.84217e-14 -1.9 1.6 -7.15625e-15 -7.95139e-15 3.37934e-15 0 -8.3 1.9 13.0273 15.6563 -1.97075 -5.68434e-14 -4.5 -1.13687e-13 1.59028e-15 -3.18055e-15 7.95139e-16 0 -3.4 0 -9.54166e-15 0 2.38542e-15 0.25 -2.2 0.4 -7.15625e-15 -7.95139e-15 3.37934e-15 -4.26326e-14 -8.3 1 22.2923 13.4789 -3.88042 0 -4.65 0 26.4967 0.000666602 -1.40308e-05 0 -3.3 1.13687e-13 19.9769 0.00513983 -0.000231144 0.5 -2.15 -0.8 -7.15625e-15 -7.95139e-15 3.37934e-15 0 -7.75 -0.2 54.6965 5.74982 -6.9572 2.27374e-13 -3.8 2.27374e-13 37.9798 0.0035262 -0.00152126 0 -3.4 1.13687e-13 26.8633 -0.00163219 -0.00104191 0.75 -1.75 -1.85 -7.15625e-15 -7.95139e-15 3.37934e-15 0 -7.15 -1 69.2246 -7.35106 -1.57943 2.27374e-13 -3 0 52.5746 -0.000317718 -0.00386969 0 -2.35 2.55795e-13 36.3012 -0.0037158 -0.00311955 8 5.68434e-14 0 -24.2048 -47.3037 -27.5224 -8.52651e-14 -45 -1 1.21879 57.8774 -2.3942 -2.84217e-14 -41 -2 -1.06301 0.974609 10.526 -2.84217e-14 -7.5 12.5 -8.97831e-17 7.9475e-16 5.56597e-15 0 -4.3715e-16 4 0.144622 -1.88608 41.4569 -8 5.68434e-14 0 -14.153 -53.3126 -15.119 0 -45 -1 -11.7945 74.2872 16.2543 0 -41 -2 0.856025 3.44996 3.13673 1.13687e-13 -7.5 12.5 -1.3991e-15 -12.5675 -1.09979e-14 0 0 4 -8.01194 10.7144 44.3526 
-261.354 72.4889 1591.11 -1.55172 7.79643 -176.142 5.68434e-14 8 0 4.34378 11.2006 -12.6785 -1.13687e-13 8 4.54747e-13 0.338334 8.53676 -0.747769 -5.68434e-14 8 2.27374e-13 0.155223 4.27271 -0.364096 0 8 0 0.154476 4.26073 -0.363057 -5.68434e-14 17 0 -2.03326 10.1243 -1.03145 -1.13687e-13 10.8 2.27374e-13 -4.64236 23.8144 -1.90106 5 17 0 -5.74455 -4.84502 8.09536 6.45 0 2.27374e-13 -0.762641 -1.68978 1.17364 6.45 0 0 69.7292 14.9882 5.45264 -2.84217e-14 -32.4 -2 -102.46 -62.6751 -107.793 1.13687e-13 -25.65 2 10.6143 -13.7518 -23.3693 -0.5 -1.5 2.65 -30.8203 -54.9152 113.33 2.84217e-14 -3.8 3.7 -0.0381922 44.6067 0.00084899 5.68434e-14 -3 2.7 -0.00877127 64.7858 0.00833391 0 -1.9 1.6 3.18055e-15 1.59028e-15 4.77083e-15 1.13687e-13 -8.3 1.9 -55.2909 13.4693 8.35186 0 -4.5 -5.68434e-14 -74.3508 0.00393237 -0.00227356 0 -3.4 0 -57.2922 -0.00115303 -0.000417869 -0.25 -2.2 0.4 3.18055e-15 1.59028e-15 4.77083e-15 0 -8.3 1 -55.4309 11.4586 8.33206 0 -4.65 0 -76.073 -0.000833479 -0.000740674 -2.27374e-13 -3.3 0 -90.0002 8.79622e-14 -6.77856e-14 -0.5 -2.15 -0.8 3.18055e-15 1.59028e-15 4.77083e-15 0 -7.75 -0.2 -79.9101 -1.91344 10.5888 -4.54747e-13 -3.8 0 -20.1656 -0.00252321 0.00248186 2.27374e-13 -3.4 -5.68434e-14 -90.0002 -5.90788e-13 5.74885e-13 -0.75 -1.75 -1.85 3.18055e-15 1.59028e-15 4.77083e-15 1.13687e-13 -7.15 -1 -61.0237 10.6694 11.0547 0 -3 -1.13687e-13 -77.3001 0.00811313 0.000352592 0 -2.35 5.68434e-14 -90.0002 1.71949e-13 -1.43125e-13 -5 17 0 7.0995 -1.49051 -1.38794 -6.45 0 2.27374e-13 -1.87087 0.0237214 -1.53031 -6.45 5.68434e-14 0 -54.5022 -27.6261 8.82752 -1.13687e-13 -32.4 -2 101.396 -69.8876 87.5525 0 -25.65 2 -42.0531 14.3106 9.85592 0.5 -1.5 2.65 4.38721 1.74656 -6.04765 0 -3.8 3.7 0.254776 7.95076 -0.117745 1.42109e-14 -3 2.7 0.0191701 11.4658 -0.0267664 2.84217e-14 -1.9 1.6 -5.56597e-15 -6.36111e-15 4.57205e-15 -1.42109e-14 -8.3 1.9 13.0629 15.6774 -1.97875 0 -4.5 -2.27374e-13 3.18055e-15 0 3.97569e-15 -5.68434e-14 -3.4 -1.13687e-13 -7.15625e-15 3.18055e-15 3.18055e-15 0.25 -2.2 0.4 -5.56597e-15 -6.36111e-15 4.57205e-15 0 -8.3 1 22.3031 13.4948 -3.88415 -1.13687e-13 -4.65 0 26.4816 0.000705801 -6.13698e-05 0 -3.3 -1.13687e-13 19.9677 0.00521039 -0.000267676 0.5 -2.15 -0.8 -5.56597e-15 -6.36111e-15 4.57205e-15 2.84217e-14 -7.75 -0.2 54.6782 5.76235 -6.95794 -2.27374e-13 -3.8 1.7053e-13 37.9638 0.00356808 -0.00153419 -2.27374e-13 -3.4 2.27374e-13 26.8537 -0.00165013 -0.00108991 0.75 -1.75 -1.85 -5.56597e-15 -6.36111e-15 4.57205e-15 2.84217e-14 -7.15 -1 69.1932 -7.34011 -1.57928 2.27374e-13 -3 2.84217e-14 52.6052 -0.000359286 -0.00380227 0 -2.35 2.55795e-13 36.3232 -0.0036603 -0.00309186 8 -5.68434e-14 2.27374e-13 -24.1994 -47.3035 -27.5245 0 -45 -1 1.21798 57.8729 -2.39273 -1.13687e-13 -41 -2 -1.06444 0.979376 10.5256 0 -7.5 12.5 -8.51726e-17 7.95527e-16 4.77083e-15 2.84217e-14 -4.44089e-16 4 0.144835 -1.88663 41.457 -8 0 0 -14.1531 -53.3119 -15.1181 -2.84217e-14 -45 -1 -11.7943 74.2873 16.254 0 -41 -2 0.858028 3.44796 3.1394 1.13687e-13 -7.5 12.5 -1.86013e-15 -12.5508 -1.22191e-14 0 -1.42109e-14 4 -8.01051 10.6979 44.3498 
-261.356 72.4894 1591.11 -1.5483 7.79814 -176.149 5.68434e-14 8 0 4.33906 11.2006 -12.6791 -5.68434e-14 8 2.27374e-13 0.33834 8.53696 -0.747571 -5.68434e-14 8 2.27374e-13 0.155048 4.27292 -0.363808 -1.13687e-13 8 2.27374e-13 0.154334 4.26094 -0.36277 0 17 2.27374e-13 -2.03347 10.13 -1.02922 -1.13687e-13 10.8 -2.27374e-13 -4.64549 23.8277 -1.8937 5 17 0 -5.74266 -4.84184 8.11277 6.45 0 0 -0.762346 -1.6888 1.17543 6.45 -5.68434e-14 0 69.7209 14.964 5.49006 2.84217e-14 -32.4 -2 -102.464 -62.6346 -107.788 1.13687e-13 -25.65 2 10.5918 -13.7178 -23.4025 -0.5 -1.5 2.65 -30.8159 -54.912 113.34 2.84217e-14 -3.8 3.7 -0.0381504 44.5962 0.000841064 1.13687e-13 -3 2.7 -0.00877996 64.839 0.00832975 0 -1.9 1.6 3.18055e-15 0 3.97569e-15 1.13687e-13 -8.3 1.9 -55.3038 13.4694 8.35512 2.27374e-13 -4.5 5.68434e-14 -74.346 0.00394494 -0.00228059 1.13687e-13 -3.4 0 -57.2857 -0.00114449 -0.000438498 -0.25 -2.2 0.4 3.18055e-15 0 3.97569e-15 0 -8.3 1 -55.4489 11.4605 8.33244 -4.54747e-13 -4.65 0 -76.0623 -0.000847855 -0.000714809 -2.27374e-13 -3.3 0 -90.0002 6.17226e-14 -4.4329e-14 -0.5 -2.15 -0.8 3.18055e-15 0 3.97569e-15 0 -7.75 -0.2 -79.9212 -1.9142 10.5889 -2.27374e-13 -3.8 5.68434e-14 -20.1586 -0.00253507 0.0025221 0 -3.4 0 -90.0002 -6.54002e-13 6.18518e-13 -0.75 -1.75 -1.85 3.18055e-15 0 3.97569e-15 1.13687e-13 -7.15 -1 -61.0407 10.6634 11.0545 0 -3 -5.68434e-14 -77.3128 0.00815325 0.000346977 -1.13687e-13 -2.35 1.13687e-13 -90.0002 1.41336e-13 -1.09332e-13 -5 17 0 7.09154 -1.48986 -1.38722 -6.45 5.68434e-14 2.27374e-13 -1.87021 0.0235835 -1.52459 -6.45 -5.68434e-14 0 -54.4794 -27.6297 8.8065 -1.13687e-13 -32.4 -2 101.337 -69.9053 87.5201 -2.27374e-13 -25.65 2 -42.0353 14.3162 9.903 0.5 -1.5 2.65 4.39635 1.74652 -6.04019 -4.26326e-14 -3.8 3.7 0.254764 7.95137 -0.117757 1.42109e-14 -3 2.7 0.0191788 11.4592 -0.0268432 2.84217e-14 -1.9 1.6 -4.77083e-15 -4.77083e-15 2.78299e-15 -7.10543e-14 -8.3 1.9 13.1096 15.6968 -1.9882 -5.68434e-14 -4.5 -1.13687e-13 -1.05934e-30 -6.36111e-15 -9.54166e-15 0 -3.4 0 -8.74653e-15 -6.36111e-15 -3.18055e-15 0.25 -2.2 0.4 -4.77083e-15 -4.77083e-15 2.78299e-15 -1.42109e-14 -8.3 1 22.32 13.5101 -3.88808 -1.13687e-13 -4.65 1.13687e-13 26.4897 0.000745497 -0.00010906 0 -3.3 0 19.9726 0.00528079 -0.000304511 0.5 -2.15 -0.8 -4.77083e-15 -4.77083e-15 2.78299e-15 0 -7.75 -0.2 54.6727 5.77152 -6.9591 -2.27374e-13 -3.8 2.84217e-13 37.9601 0.00360958 -0.00154765 -2.27374e-13 -3.4 2.27374e-13 26.8515 -0.00166836 -0.00113832 0.75 -1.75 -1.85 -4.77083e-15 -4.77083e-15 2.78299e-15 1.42109e-14 -7.15 -1 69.1727 -7.33191 -1.57914 0 -3 -2.84217e-14 52.6498 -0.000401406 -0.00373547 0 -2.35 2.84217e-13 36.3553 -0.00360501 -0.00306448 8 5.68434e-14 0 -24.1986 -47.3018 -27.5327 0 -45 -1 1.21743 57.8724 -2.39141 -1.42109e-13 -41 -2 -1.0651 0.979599 10.5262 -1.13687e-13 -7.5 12.5 -8.64102e-17 7.95042e-16 7.15625e-15 2.84217e-14 -4.45824e-16 4 0.146505 -1.88882 41.4571 -8 5.68434e-14 0 -14.152 -53.3115 -15.1156 -2.84217e-14 -45 -1 -11.7916 74.2875 16.2536 0 -41 -2 0.859873 3.44629 3.14054 1.13687e-13 -7.5 12.5 -2.60658e-15 -12.5313 -6.51634e-15 0 -1.42109e-14 4 -8.00963 10.6789 44.3466 
